<svg width="125" height="41" viewBox="0 0 125 41" fill="none" xmlns="http://www.w3.org/2000/svg">
<path d="M118.481 2.20863C118.481 1.02563 119.44 0.0656309 120.623 0.0656309H122.052C122.62 0.0656309 123.166 0.291411 123.567 0.693301C123.969 1.09519 124.195 1.64027 124.195 2.20863C124.195 2.77699 123.969 3.32207 123.567 3.72396C123.166 4.12585 122.62 4.35163 122.052 4.35163H120.623C120.342 4.35163 120.063 4.29619 119.803 4.18849C119.543 4.08078 119.307 3.92291 119.108 3.7239C118.909 3.52489 118.751 3.28864 118.644 3.02865C118.536 2.76865 118.481 2.49001 118.481 2.20863ZM58.4901 14.3496C58.4901 22.2376 52.0961 28.6326 44.2071 28.6326C36.3191 28.6326 29.9241 22.2376 29.9241 14.3496C29.9241 6.45963 36.3191 0.0666309 44.2071 0.0666309C52.0961 0.0666309 58.4901 6.45963 58.4901 14.3496ZM27.1381 14.2786C27.9281 14.2786 28.5741 14.9186 28.4951 15.7046C28.2251 18.3945 27.1973 20.9524 25.5312 23.0813C23.865 25.2101 21.6289 26.8224 19.0828 27.7308C16.5366 28.6391 13.785 28.8063 11.1476 28.2127C8.51022 27.6192 6.09543 26.2894 4.18388 24.3778C2.27234 22.4663 0.942523 20.0515 0.348993 17.4141C-0.244537 14.7768 -0.0774105 12.0251 0.830949 9.47893C1.73931 6.93278 3.3516 4.69669 5.48045 3.03054C7.60929 1.36439 10.1673 0.336606 12.8571 0.0666309C13.6421 -0.0133691 14.2831 0.634631 14.2831 1.42263V12.8496C14.2831 13.6396 14.9231 14.2786 15.7121 14.2786H27.1381ZM78.4871 31.4896C79.6235 31.4896 80.7134 31.9411 81.517 32.7447C82.3206 33.5483 82.7721 34.6382 82.7721 35.7746C82.7721 36.9111 82.3206 38.001 81.517 38.8046C80.7134 39.6082 79.6235 40.0596 78.4871 40.0596H71.3461C70.2096 40.0596 69.1197 39.6082 68.3161 38.8046C67.5125 38.001 67.0611 36.9111 67.0611 35.7746C67.0611 34.6382 67.5125 33.5483 68.3161 32.7447C69.1197 31.9411 70.2096 31.4896 71.3461 31.4896H78.4871ZM74.2021 28.6326C82.0911 28.6326 88.4861 22.2376 88.4861 14.3496C88.4895 11.9266 87.8737 9.54284 86.6971 7.42463L89.0571 5.06463C89.3289 4.79266 89.5445 4.46982 89.6916 4.11452C89.8387 3.75923 89.9143 3.37845 89.9142 2.99392C89.9141 2.6094 89.8383 2.22865 89.6911 1.87343C89.5438 1.51821 89.328 1.19547 89.0561 0.923631C88.7841 0.651795 88.4613 0.436188 88.106 0.289122C87.7507 0.142055 87.3699 0.0664088 86.9854 0.0665016C86.6008 0.0665945 86.2201 0.142425 85.8649 0.289663C85.5097 0.436901 85.1869 0.652663 84.9151 0.924631L82.8551 2.98463C80.3699 1.08654 77.3282 0.060599 74.2011 0.0656309C66.3141 0.0666309 59.9201 6.45963 59.9201 14.3496C59.9201 22.2376 66.3141 28.6326 74.2021 28.6326ZM118.481 14.3496C118.481 22.2376 112.086 28.6326 104.197 28.6326C96.3091 28.6326 89.9141 22.2376 89.9141 14.3496C89.9141 6.45963 96.3091 0.0666309 104.197 0.0666309C112.086 0.0666309 118.481 6.46063 118.481 14.3496Z" fill="url(#paint0_linear_545_274)"/>
<defs>
<linearGradient id="paint0_linear_545_274" x1="8.66483e-05" y1="16.0596" x2="119" y2="16.0596" gradientUnits="userSpaceOnUse">
<stop stop-color="#64C2DB"/>
<stop offset="0.307" stop-color="#7476ED"/>
<stop offset="0.604" stop-color="#C994DF"/>
<stop offset="1" stop-color="#E56F8C"/>
</linearGradient>
</defs>
</svg>
