<svg width="81" height="71" viewBox="0 0 81 71" fill="none" xmlns="http://www.w3.org/2000/svg">
<path d="M17.9305 59.8835H21.4637C21.4256 60.2393 21.3493 60.9383 21.0951 61.434C20.2944 63.1497 18.4516 64.1029 14.9566 64.1029C12.1605 64.1029 10.3431 63.4039 9.36446 62.222C8.69086 61.434 8.34766 60.341 8.34766 58.943C8.34766 57.6721 8.66545 56.6172 9.30085 55.8419C10.3176 54.571 12.1478 53.8085 15.0201 53.8085C18.9345 53.8085 20.5613 55.2065 21.1587 56.6935C21.362 57.2145 21.4256 57.7992 21.4383 58.1169H17.9051C17.8923 57.8881 17.8034 57.5958 17.6509 57.3797C17.2823 56.846 16.4689 56.452 14.982 56.452C13.6348 56.452 12.6562 56.7951 12.2113 57.4941C11.9826 57.8373 11.8936 58.3457 11.8936 58.9811C11.8936 59.6674 12.008 60.1377 12.2495 60.4808C12.7452 61.2179 13.8509 61.4975 14.9947 61.4975C16.3291 61.4975 17.2822 61.2306 17.7017 60.6206C17.8543 60.4045 17.9178 60.1504 17.9305 59.8835Z" fill="#394149"/>
<path d="M32.3771 61.2941V63.9503H22.8579V53.9736H26.3021V61.2941H32.3771Z" fill="#394149"/>
<path d="M44.241 63.9503V61.472H37.0857V60.1757H43.9487V57.7482H37.0857V56.4646H44.1521V53.9736H33.7305V63.9503H44.241Z" fill="#394149"/>
<path fill-rule="evenodd" clip-rule="evenodd" d="M54.714 62.1075H49.3253L48.3975 63.9503H44.8008L50.126 53.9736H54.231L59.264 63.9503H55.591L54.714 62.1075ZM50.4437 59.8707H53.634L52.4391 57.4559L52.0832 56.5535L51.702 57.4686L50.4437 59.8707Z" fill="#394149"/>
<path fill-rule="evenodd" clip-rule="evenodd" d="M72.0358 57.0111C72.0358 56.1087 71.8198 55.4605 71.3618 54.9903C70.7648 54.3548 69.7348 53.9736 68.1598 53.9736H60.2158V63.9503H63.6098V60.4299H66.6978L69.1758 63.9503H72.9638L69.9518 59.8834C70.6248 59.7817 71.1718 59.375 71.5268 58.892C71.8448 58.4472 72.0358 57.7863 72.0358 57.0111ZM68.7308 57.3288C68.7308 57.494 68.7058 57.6974 68.6168 57.8499C68.4898 58.1041 68.1598 58.2058 67.6128 58.2058H63.6218V56.3883H67.5488C68.0828 56.3883 68.4388 56.4773 68.6168 56.8077C68.7058 56.9348 68.7308 57.1382 68.7308 57.3288Z" fill="#394149"/>
<path d="M53.296 8.53549C53.296 8.70079 53.271 8.90409 53.182 9.05659C53.055 9.31079 52.724 9.41249 52.1777 9.41249H48.187V7.59509H52.1141C52.648 7.59509 53.004 7.68399 53.182 8.01449C53.271 8.14159 53.296 8.34489 53.296 8.53549Z" fill="#394149"/>
<path d="M63.2319 11.0774H66.4219L65.2269 8.66255L64.8709 7.76025L64.4899 8.67535L63.2319 11.0774Z" fill="#394149"/>
<path fill-rule="evenodd" clip-rule="evenodd" d="M2.5415 8.51192C2.953 4.46012 6.3749 1.29822 10.5353 1.29822H70.465C74.903 1.29822 78.5 4.89572 78.5 9.33352V59.6193C78.5 64.0571 74.903 67.6546 70.465 67.6546H10.5353C6.0975 67.6546 2.5 64.0571 2.5 59.6193V9.33352C2.5 9.05612 2.5141 8.78212 2.5415 8.51192ZM4.174 23.7728L31.181 32.9067C31.9167 32.1602 32.9179 31.5113 34.1223 31.0057C34.3992 30.8894 34.685 30.7816 34.9784 30.6824L23.7187 19.258H32.5325L37.4804 30.0753C38.1338 29.9728 38.8055 29.9075 39.4864 29.8814C39.7129 29.8727 39.9394 29.8683 40.1655 29.8683V19.258H47.7983L42.8504 30.0755C43.6126 30.1952 44.3526 30.3659 45.0552 30.5859C45.9595 30.8691 46.7826 31.2277 47.5007 31.6484L68.652 19.258H76.826V23.5464L45.8647 34.0177C45.2139 33.3573 44.2434 32.8249 43.0759 32.4876C41.9085 32.1504 40.5966 32.0235 39.306 32.123C38.0155 32.2225 36.8044 32.544 35.8257 33.0467C34.8471 33.5495 34.1449 34.211 33.808 34.9475C33.4711 35.684 33.5146 36.4625 33.933 37.1846C34.3514 37.9066 35.126 38.5399 36.1586 39.0041C37.1913 39.4682 38.4358 39.7425 39.7347 39.7924C40.4564 39.8201 41.177 39.7779 41.8683 39.6693C42.4208 39.5826 42.9551 39.4535 43.4558 39.2841L53.717 49.6949H46.4547L42.8499 41.8153C41.0892 42.0917 39.2373 42.0911 37.4804 41.8154L33.8762 49.6949H26.6141L34.9783 41.2084C34.1952 40.9435 33.4724 40.6191 32.8296 40.2426L16.6939 49.6949H4.174V48.118L31.1809 38.984C30.5595 38.3535 30.1337 37.6599 29.9295 36.9353C29.6881 36.0788 29.7636 35.2051 30.1445 34.3725L4.174 30.2961V23.7728ZM76.826 48.3443L40.1655 35.9453L76.826 41.6997V48.3443ZM76.826 51.3689H4.174V59.6193C4.174 63.1325 7.022 65.9805 10.5353 65.9805H70.465C73.978 65.9805 76.826 63.1325 76.826 59.6193V51.3689ZM22.0029 11.3062V5.18032H18.5968V11.0011C18.5968 12.0433 17.6309 12.7423 16.0042 12.7423C14.3011 12.7423 13.3733 12.0687 13.3733 10.9884V5.18032H9.9291V10.9884C9.9291 14.0132 12.4075 15.2969 15.8644 15.2969C19.5628 15.2969 22.0029 14.0005 22.0029 11.3062ZM33.4738 15.1571V12.5008H27.3988V5.18032H23.9546V15.1571H33.4738ZM43.7096 5.18032V7.68402H39.4902V15.1571H36.0078V7.68402H31.8011V5.18032H43.7096ZM56.6 8.21782C56.6 7.31552 56.384 6.66732 55.927 6.19702C55.33 5.56162 54.3 5.18032 52.724 5.18032H44.7809V15.1571H48.1742V11.6366H51.2626L53.741 15.1571H57.528L54.516 11.0901C55.19 10.9884 55.736 10.5817 56.092 10.0988C56.41 9.65402 56.6 8.99312 56.6 8.21782ZM67.502 13.3142H62.113L61.186 15.1571H57.589L62.914 5.18032H67.019L72.052 15.1571H68.379L67.502 13.3142Z" fill="#394149"/>
</svg>
