<svg width="160" height="31" viewBox="0 0 160 31" fill="none" xmlns="http://www.w3.org/2000/svg">
<g clip-path="url(#clip0_545_328)">
<path d="M38.5654 1.33423H42.5601V23.1233H49.1331V26.7549H38.5654V1.33423Z" fill="#726BEA"/>
<path d="M56.6813 27.118C54.7203 27.118 53.2193 26.5612 52.1782 25.4475C51.1372 24.3338 50.6167 22.7602 50.6167 20.7265V7.36254C50.6167 5.32889 51.1372 3.75523 52.1782 2.64157C53.2193 1.5279 54.7203 0.971069 56.6813 0.971069C58.6423 0.971069 60.1433 1.5279 61.1844 2.64157C62.2254 3.75523 62.7459 5.32889 62.7459 7.36254V20.7265C62.7459 22.7602 62.2254 24.3338 61.1844 25.4475C60.1433 26.5612 58.6423 27.118 56.6813 27.118ZM56.6813 23.4865C58.0613 23.4865 58.7513 22.6512 58.7513 20.9807V7.10833C58.7513 5.43783 58.0613 4.60258 56.6813 4.60258C55.3013 4.60258 54.6113 5.43783 54.6113 7.10833V20.9807C54.6113 22.6512 55.3013 23.4865 56.6813 23.4865Z" fill="#726BEA"/>
<path d="M71.1124 27.118C69.1756 27.118 67.6988 26.5733 66.6819 25.4838C65.6651 24.3702 65.1567 22.7844 65.1567 20.7265V7.36254C65.1567 5.30468 65.6651 3.73102 66.6819 2.64157C67.6988 1.5279 69.1756 0.971069 71.1124 0.971069C73.0492 0.971069 74.526 1.5279 75.5428 2.64157C76.5597 3.73102 77.0681 5.30468 77.0681 7.36254V9.54144H73.2913V7.10833C73.2913 5.43783 72.6013 4.60258 71.2213 4.60258C69.8414 4.60258 69.1514 5.43783 69.1514 7.10833V21.0171C69.1514 22.6634 69.8414 23.4865 71.2213 23.4865C72.6013 23.4865 73.2913 22.6634 73.2913 21.0171V16.0419H71.294V12.4104H77.0681V20.7265C77.0681 22.7844 76.5597 24.3702 75.5428 25.4838C74.526 26.5733 73.0492 27.118 71.1124 27.118Z" fill="#726BEA"/>
<path d="M85.4069 27.118C83.4459 27.118 81.9449 26.5612 80.9039 25.4475C79.8628 24.3338 79.3423 22.7602 79.3423 20.7265V7.36254C79.3423 5.32889 79.8628 3.75523 80.9039 2.64157C81.9449 1.5279 83.4459 0.971069 85.4069 0.971069C87.368 0.971069 88.869 1.5279 89.91 2.64157C90.9511 3.75523 91.4716 5.32889 91.4716 7.36254V20.7265C91.4716 22.7602 90.9511 24.3338 89.91 25.4475C88.869 26.5612 87.368 27.118 85.4069 27.118ZM85.4069 23.4865C86.7869 23.4865 87.4769 22.6512 87.4769 20.9807V7.10833C87.4769 5.43783 86.7869 4.60258 85.4069 4.60258C84.027 4.60258 83.337 5.43783 83.337 7.10833V20.9807C83.337 22.6512 84.027 23.4865 85.4069 23.4865Z" fill="#726BEA"/>
<path d="M94.1807 1.33423H98.1754V26.7549H94.1807V1.33423Z" fill="#4F46E5"/>
<path d="M101.167 1.33423H107.05C109.035 1.33423 110.524 1.86685 111.517 2.9321C112.51 3.99734 113.006 5.55889 113.006 7.61675V10.1225C113.006 12.1804 112.51 13.7419 111.517 14.8072C110.524 15.8724 109.035 16.405 107.05 16.405H105.162V26.7549H101.167V1.33423ZM107.05 12.7735C107.704 12.7735 108.188 12.5919 108.503 12.2288C108.842 11.8656 109.011 11.2483 109.011 10.3767V7.36255C109.011 6.49098 108.842 5.87362 108.503 5.51047C108.188 5.14732 107.704 4.96575 107.05 4.96575H105.162V12.7735H107.05Z" fill="#4F46E5"/>
<path d="M120.51 27.118C118.574 27.118 117.109 26.5733 116.116 25.4838C115.124 24.3702 114.627 22.7844 114.627 20.7265V19.2739H118.404V21.0171C118.404 22.6634 119.094 23.4865 120.474 23.4865C121.152 23.4865 121.66 23.2928 121.999 22.9055C122.362 22.4939 122.544 21.8402 122.544 20.9444C122.544 19.8792 122.302 18.9471 121.818 18.1482C121.334 17.325 120.438 16.3445 119.13 15.2066C117.484 13.754 116.334 12.4467 115.68 11.2846C115.027 10.0983 114.7 8.76672 114.7 7.28991C114.7 5.28047 115.208 3.73102 116.225 2.64157C117.242 1.5279 118.719 0.971069 120.656 0.971069C122.568 0.971069 124.009 1.5279 124.977 2.64157C125.97 3.73102 126.466 5.30468 126.466 7.36254V8.41568H122.689V7.10833C122.689 6.23677 122.52 5.6073 122.181 5.21994C121.842 4.80837 121.346 4.60258 120.692 4.60258C119.36 4.60258 118.695 5.41362 118.695 7.0357C118.695 7.95568 118.937 8.81514 119.421 9.61407C119.929 10.413 120.837 11.3814 122.145 12.5193C123.815 13.9719 124.965 15.2914 125.595 16.4777C126.224 17.664 126.539 19.056 126.539 20.6539C126.539 22.736 126.018 24.3338 124.977 25.4475C123.96 26.5612 122.471 27.118 120.51 27.118Z" fill="#4F46E5"/>
<path d="M134.64 27.118C132.703 27.118 131.226 26.5733 130.209 25.4838C129.192 24.3702 128.684 22.7844 128.684 20.7265V1.33423H132.679V21.0171C132.679 21.8886 132.848 22.5181 133.187 22.9055C133.55 23.2928 134.059 23.4865 134.712 23.4865C135.366 23.4865 135.862 23.2928 136.201 22.9055C136.564 22.5181 136.746 21.8886 136.746 21.0171V1.33423H140.595V20.7265C140.595 22.7844 140.087 24.3702 139.07 25.4838C138.053 26.5733 136.576 27.118 134.64 27.118Z" fill="#4F46E5"/>
<path d="M143.44 1.33423H149.142L151.684 19.5281H151.756L154.299 1.33423H160V26.7549H156.223V7.50781H156.151L153.245 26.7549H149.904L146.999 7.50781H146.927V26.7549H143.44V1.33423Z" fill="#4F46E5"/>
<path d="M0 26.7549C4.91448 26.7549 8.89841 22.7709 8.89841 17.8565C8.89841 12.942 4.91448 8.95801 0 8.95801V15.1869C1.47433 15.1869 2.66951 16.3821 2.66951 17.8565C2.66951 19.3308 1.47433 20.526 0 20.526V26.7549Z" fill="#726BEA"/>
<path d="M29.6614 11.9242C28.1408 11.4425 26.5215 11.1826 24.8414 11.1826C16.0363 11.1826 8.89844 18.3206 8.89844 27.1256C8.89844 28.0094 8.97036 28.8764 9.10862 29.721H19.0145C18.6609 28.9282 18.4643 28.0499 18.4643 27.1256C18.4643 23.6036 21.3194 20.7484 24.8414 20.7484C26.7664 20.7484 28.4921 21.6013 29.6614 22.9498V11.9242Z" fill="#A5B4FC"/>
<path d="M1.56445 0.0595703C2.30219 6.73331 7.96024 11.9242 14.8306 11.9242C21.7009 11.9242 27.359 6.73331 28.0967 0.0595703H18.5512C17.9619 1.53687 16.5181 2.58078 14.8306 2.58078C13.143 2.58078 11.6993 1.53687 11.1099 0.0595703H1.56445Z" fill="#4F46E5"/>
</g>
<defs>
<clipPath id="clip0_545_328">
<rect width="160" height="30" fill="white" transform="translate(0 0.0595703)"/>
</clipPath>
</defs>
</svg>
