<svg width="50" height="49" viewBox="0 0 50 49" fill="none" xmlns="http://www.w3.org/2000/svg">
<path d="M25 12.8096C25 19.0228 19.9632 24.0596 13.75 24.0596H2.5V12.8096C2.5 6.59636 7.53679 1.55957 13.75 1.55957C19.9632 1.55957 25 6.59636 25 12.8096Z" fill="#17CF97"/>
<path d="M25 35.3096C25 29.0964 30.0368 24.0596 36.25 24.0596H47.5V35.3096C47.5 41.5228 42.4632 46.5596 36.25 46.5596C30.0368 46.5596 25 41.5228 25 35.3096Z" fill="#17CF97"/>
<path d="M2.5 35.3096C2.5 41.5228 7.53679 46.5596 13.75 46.5596H25V35.3096C25 29.0964 19.9632 24.0596 13.75 24.0596C7.53679 24.0596 2.5 29.0964 2.5 35.3096Z" fill="#17CF97"/>
<path d="M47.5 12.8096C47.5 6.59636 42.4632 1.55957 36.25 1.55957H25V12.8096C25 19.0228 30.0368 24.0596 36.25 24.0596C42.4632 24.0596 47.5 19.0228 47.5 12.8096Z" fill="#17CF97"/>
</svg>
