<svg width="71" height="45" viewBox="0 0 71 45" fill="none" xmlns="http://www.w3.org/2000/svg">
<g clip-path="url(#clip0_545_313)">
<path d="M66.0266 5.46816C66.0266 5.51946 66.0266 5.58359 66.0135 5.62207C65.9479 6.12228 65.9479 6.62249 65.9872 7.13553C66.0135 7.26379 66.0397 7.39205 66.1447 7.49466C66.3152 7.68704 66.5775 7.64857 66.6825 7.4177C66.735 7.30227 66.735 7.18683 66.7087 7.0714C66.5775 6.58401 66.5513 6.07098 66.5382 5.57076C66.5382 5.54511 66.5382 5.50663 66.5382 5.46816C66.6825 5.45533 66.8137 5.4425 66.9317 5.4425C67.0236 5.42968 67.1023 5.41685 67.1679 5.37837C67.3646 5.27577 67.3646 5.05773 67.1547 4.95512C67.076 4.91664 66.9711 4.90381 66.8793 4.90381C66.5513 4.91664 66.2234 4.91664 65.8954 4.91664C65.7774 4.91664 65.6593 4.92947 65.5412 4.94229C65.4756 4.95512 65.3969 4.95512 65.3445 4.9936C65.2526 5.03207 65.2002 5.0962 65.2002 5.18598C65.2133 5.27577 65.2526 5.32707 65.3445 5.36555C65.3969 5.40403 65.4625 5.41685 65.5281 5.41685C65.6855 5.42968 65.8561 5.45533 66.0266 5.46816ZM69.634 6.05815C69.634 6.07098 69.6471 6.0838 69.6471 6.0838C69.6996 6.4301 69.7521 6.76358 69.7914 7.09705C69.8046 7.21248 69.8177 7.31509 69.8964 7.40487C70.0669 7.62291 70.3293 7.59726 70.4473 7.3664C70.4998 7.25096 70.5129 7.13553 70.4867 7.00727C70.408 6.62249 70.3686 6.23771 70.2899 5.86576C70.2374 5.63489 70.1719 5.41685 70.1063 5.21164C70.0669 5.08338 69.9751 4.99359 69.8177 4.98077C69.6603 4.95512 69.5422 5.03207 69.4766 5.14751C69.3979 5.25011 69.3323 5.35272 69.2798 5.46816C69.188 5.67337 69.1093 5.87859 69.0044 6.07098C68.9912 6.12228 68.9781 6.16076 68.9519 6.19923C68.9388 6.17358 68.9257 6.16076 68.9257 6.16076C68.7551 5.84011 68.5977 5.51946 68.4272 5.21164C68.4009 5.18598 68.3878 5.16033 68.3747 5.13468C68.296 5.01925 68.2042 4.95512 68.0599 4.95512C67.9287 4.96794 67.8237 5.0449 67.7582 5.16033C67.7319 5.21164 67.7319 5.25011 67.7188 5.30142C67.6663 5.71185 67.6007 6.12228 67.5483 6.53271C67.522 6.76358 67.5089 6.99444 67.5089 7.22531C67.4958 7.27661 67.5089 7.34074 67.5351 7.39205C67.5614 7.49465 67.6401 7.55879 67.745 7.57161C67.8762 7.58444 67.968 7.54596 68.0074 7.44335C68.0467 7.3664 68.0599 7.30227 68.073 7.23814C68.1255 7.00727 68.1648 6.78923 68.2042 6.57119C68.2304 6.44293 68.2435 6.34032 68.2829 6.19923C68.3091 6.25054 68.3353 6.28902 68.3616 6.32749C68.4796 6.48141 68.5977 6.63532 68.742 6.76358C68.8863 6.86618 69.0044 6.85336 69.1224 6.73792C69.1487 6.71227 69.1618 6.69945 69.188 6.67379C69.3061 6.49423 69.4504 6.31467 69.5684 6.1351C69.5947 6.10945 69.6078 6.0838 69.634 6.05815Z" fill="#3A3B7B"/>
<path d="M39.4086 5.7201C39.3174 5.96385 39.3 6.13946 39.3421 6.28542C39.3886 6.4839 39.5093 6.54888 39.6731 6.4984C41.2139 6.12587 44.5926 7.18327 45.8435 7.47798C46.1385 7.53986 46.3785 7.16751 46.1772 6.83367C45.8834 6.51037 42.5062 5.1262 41.2176 5.05073C40.7125 5.02282 39.8095 4.89618 39.4086 5.7201Z" fill="#3A3B7B"/>
<path d="M52.6135 1.23934C52.7777 1.33201 52.8695 1.42041 52.9148 1.51918C52.9823 1.64874 52.9467 1.73838 52.8333 1.78412C51.8148 2.27014 50.4595 4.36255 49.9124 5.0842C49.7798 5.25021 49.4739 5.15374 49.4277 4.88074C49.4372 4.57206 50.6386 2.30133 51.3091 1.68286C51.5726 1.44139 52.0079 0.967596 52.6135 1.23934Z" fill="#3A3B7B"/>
<path d="M44.5022 0.209366C44.6995 0.0639892 44.9045 0.0130447 45.0092 0.107522C46.5459 1.39247 47.3608 3.4273 47.8654 5.29014C47.8844 5.33354 47.8856 5.39582 47.8704 5.46079C47.8641 5.51632 47.8226 5.57498 47.7567 5.62037C47.6863 5.67048 47.6257 5.68574 47.5972 5.64256C46.9237 4.74689 43.077 1.26199 44.5022 0.209366Z" fill="#3A3B7B"/>
<path d="M11.961 22.4872C12.3293 22.2191 12.7297 21.9959 13.1534 21.8227C13.5967 21.6988 14.0692 21.7193 14.4995 21.8813C14.9297 22.0433 15.2944 22.3378 15.5382 22.7204C15.7563 23.102 15.8416 23.5426 15.7814 23.9758C15.7212 24.4089 15.5187 24.8112 15.2043 25.1221C14.9606 25.3741 14.6839 25.5936 14.3816 25.775C13.0342 26.6261 11.6748 27.4305 10.3155 28.2816C10.0373 28.4946 9.74225 28.6857 9.43308 28.8529C8.96281 29.0822 8.42537 29.1436 7.91368 29.0265C7.402 28.9095 6.94826 28.6212 6.63092 28.2117C6.39369 27.9217 6.19348 27.6046 6.03471 27.2673C4.74691 24.6208 3.41142 21.9859 2.17131 19.2927C1.59895 18.1269 1.13391 16.7861 0.680798 15.492C0.484759 15.116 0.446477 14.6801 0.574104 14.2769C0.70173 13.8737 0.985195 13.5351 1.3642 13.3331C1.74321 13.1311 2.18785 13.0817 2.60357 13.1953C3.01929 13.3089 3.37329 13.5766 3.59027 13.9414C4.25722 14.808 4.84761 15.7285 5.35504 16.6929C6.64284 19.0246 7.87103 21.3563 9.11113 23.6181C9.18334 23.7431 9.26296 23.8637 9.34961 23.9795C10.283 23.5958 11.1609 23.0941 11.961 22.4872Z" fill="#3A3B7B"/>
<path d="M25.2761 21.6738C22.3309 25.0431 17.3943 24.192 14.9141 19.855C13.1493 16.7771 12.8393 11.6939 16.6789 8.48777C17.4988 7.81654 18.4792 7.35928 19.5287 7.15866C20.8155 6.97829 22.1277 7.20025 23.2777 7.79283C24.4277 8.38542 25.3567 9.31827 25.932 10.4581C28.0306 14.1889 27.7325 18.9456 25.2761 21.6738ZM24.0837 13.8158C23.7708 12.899 23.1431 12.1163 22.307 11.6006C21.8339 11.2709 21.259 11.1106 20.6792 11.1467C20.0993 11.1828 19.5499 11.4131 19.1233 11.7988C17.4182 13.2795 17.0604 16.7888 18.3005 18.8757C18.4586 19.216 18.6907 19.5184 18.9808 19.7618C19.2709 20.0052 19.6119 20.1837 19.9799 20.2847C20.3479 20.3858 20.734 20.407 21.1113 20.3469C21.4886 20.2867 21.8478 20.1467 22.164 19.9366C23.0883 19.2359 23.7664 18.2711 24.104 17.1763C24.4417 16.0814 24.4221 14.9109 24.048 13.8275L24.0837 13.8158Z" fill="#3A3B7B"/>
<path d="M37.2954 15.2847C36.9939 15.3481 36.6824 15.3519 36.3793 15.2958C36.0763 15.2397 35.7877 15.125 35.5307 14.9583C35.3058 14.8325 35.1122 14.6596 34.9638 14.4519C34.8155 14.2442 34.7161 14.007 34.6728 13.7572C34.6294 13.5075 34.6433 13.2515 34.7132 13.0076C34.7832 12.7637 34.9077 12.538 35.0776 12.3467C35.3736 11.9623 35.7938 11.6871 36.27 11.5656C37.5133 11.2128 38.7932 10.9977 40.0857 10.9244C40.3697 10.8921 40.6574 10.9156 40.9319 10.9935C41.2065 11.0715 41.4623 11.2022 41.6845 11.3782C41.9066 11.5541 42.0906 11.7717 42.2256 12.0181C42.3605 12.2645 42.4438 12.5348 42.4705 12.8131C42.8431 14.1801 42.8839 15.6134 42.5897 16.9986C41.5166 21.4755 37.8201 23.0144 33.6705 21.5804C32.5057 21.197 31.4844 20.4826 30.7372 19.5285C29.7406 18.3795 29.034 17.0178 28.6743 15.5529C28.3829 14.2484 28.4148 12.8948 28.7675 11.6049C29.1201 10.315 29.7832 9.12621 30.7014 8.13791C31.5728 7.06374 32.7038 6.21837 33.9925 5.67792C34.8068 5.23907 35.7597 5.11429 36.6635 5.32816C36.8685 5.38364 37.0546 5.49174 37.2025 5.64125C37.3504 5.79077 37.4547 5.97624 37.5046 6.17845C37.5545 6.38065 37.5481 6.59222 37.4862 6.79122C37.4242 6.99021 37.309 7.16938 37.1524 7.31014C36.8546 7.57369 36.5311 7.80799 36.1865 8.00966C35.1264 8.66973 34.2039 9.52028 33.4678 10.5163C32.9853 11.1608 32.653 11.9009 32.4944 12.6844C32.3357 13.4679 32.3546 14.2759 32.5497 15.0516C32.8201 16.1092 33.4202 17.0585 34.2667 17.768C36.89 20.0998 40.3003 17.8496 39.7041 14.6668C38.8337 14.8767 38.0705 15.0982 37.2954 15.2847Z" fill="#3A3B7B"/>
<path d="M53.3215 21.8602C49.4462 24.192 45.0343 21.8602 44.0684 16.9636C43.3649 13.466 44.7004 8.56936 49.3747 6.70397C50.3692 6.31562 51.4479 6.17927 52.5107 6.30757C53.7876 6.53612 54.959 7.15075 55.8596 8.06482C56.7602 8.97888 57.3448 10.1462 57.5307 11.4024C58.3177 15.5645 56.5291 20.0065 53.3215 21.8602ZM54.669 14.0139C54.6678 13.0454 54.3174 12.1082 53.6793 11.3674C53.3382 10.9092 52.8451 10.5809 52.2841 10.4384C51.723 10.296 51.1289 10.3482 50.6028 10.5863C48.5042 11.4723 47.0256 14.6901 47.5622 17.0569C47.6032 17.4283 47.7266 17.7865 47.9239 18.1064C48.1212 18.4263 48.3876 18.7002 48.7045 18.909C49.0213 19.1177 49.381 19.2563 49.7583 19.315C50.1357 19.3736 50.5216 19.351 50.889 19.2487C51.9983 18.8698 52.9588 18.1617 53.6364 17.2232C54.3141 16.2847 54.6751 15.1627 54.669 14.0139Z" fill="#3A3B7B"/>
<path d="M61.4498 22.8396C61.3913 23.2663 61.1619 23.6528 60.8119 23.9141C60.4619 24.1753 60.0201 24.29 59.5837 24.2328C59.1473 24.1756 58.752 23.9512 58.4848 23.609C58.2175 23.2669 58.1003 22.8349 58.1588 22.4082C58.2173 21.9815 58.4468 21.595 58.7967 21.3337C59.1467 21.0724 59.5885 20.9578 60.0249 21.015C60.4613 21.0722 60.8566 21.2965 61.1239 21.6387C61.3911 21.9809 61.5084 22.4129 61.4498 22.8396ZM60.4124 7.11197C60.6392 6.77332 60.9719 6.51543 61.3609 6.37676C61.7498 6.23809 62.1742 6.22607 62.5707 6.3425C62.9738 6.44111 63.3299 6.67212 63.5796 6.99685C63.8292 7.32159 63.9571 7.72032 63.942 8.12628C63.8894 8.77745 63.7898 9.42418 63.6439 10.0616C63.2504 12.2185 62.8688 14.3753 62.4515 16.5089C62.2607 17.36 62.0103 18.1761 61.736 19.0388C61.6406 19.3085 61.4812 19.5522 61.271 19.75C61.1403 19.8988 60.9734 20.0129 60.7856 20.0818C60.5978 20.1508 60.3953 20.1723 60.1968 20.1444C59.9983 20.1165 59.8101 20.0401 59.6498 19.9223C59.4895 19.8044 59.3622 19.6489 59.2797 19.4702C59.1379 19.1496 59.0609 18.8051 59.0531 18.4559C59.0531 17.0102 59.0531 15.5529 59.1485 14.0955C59.3106 12.0157 59.6294 9.95038 60.1024 7.91642C60.1581 7.64392 60.263 7.38333 60.4124 7.14695V7.11197Z" fill="#3A3B7B"/>
<path fill-rule="evenodd" clip-rule="evenodd" d="M6.92312 32.2085C6.78233 32.5158 6.74372 32.8584 6.81252 33.1881C6.85829 33.6227 6.95882 34.0502 7.11182 34.4608C7.30284 34.9636 7.51659 35.4608 7.78015 36.0736C7.84076 36.2146 7.9041 36.3618 7.97038 36.5167C8.3258 37.3469 8.77176 38.4079 9.36661 39.9434C9.53498 40.3796 9.68449 40.8194 9.83505 41.2622C9.89587 41.4411 9.95691 41.6206 10.0194 41.8005C10.2434 42.4401 10.6287 43.0147 11.1395 43.4701C11.3564 43.7204 11.6441 43.9028 11.9667 43.994C12.2956 44.087 12.6454 44.0811 12.9708 43.9771C13.2962 43.873 13.582 43.6756 13.7911 43.4105C13.9961 43.1506 14.118 42.8374 14.1417 42.5102C14.2747 41.8728 14.2293 41.2119 14.0101 40.5974C13.6622 39.5771 13.2659 38.5553 12.8089 37.5559L12.8068 37.5515C12.055 35.9879 11.2908 34.4351 10.4905 32.8817L10.4845 32.8708C10.2502 32.4661 9.94567 32.1043 9.58467 31.8017C9.35031 31.5316 9.02704 31.3494 8.67004 31.2866C8.30543 31.2225 7.92939 31.2871 7.60905 31.469C7.30601 31.6382 7.06579 31.8971 6.92312 32.2085Z" fill="#3A3B7B"/>
<path fill-rule="evenodd" clip-rule="evenodd" d="M18.4059 28.3581C17.2271 28.0596 15.996 28.0161 14.7984 28.2307C13.8708 28.32 12.9585 28.5292 12.325 28.9436C12.0028 29.1545 11.7423 29.4253 11.5974 29.7695C11.4517 30.1156 11.4331 30.5114 11.5525 30.9524C11.7705 31.7602 12.0536 32.5456 12.3357 33.3285L12.3814 33.4553L12.3825 33.4581C13.2319 35.7325 14.0894 37.9992 14.9547 40.2581C15.0556 40.6141 15.1983 40.9575 15.3799 41.2814L15.3833 41.2874C15.6232 41.6898 15.9309 42.0497 16.2934 42.352C16.4747 42.5182 16.6989 42.6332 16.942 42.6846C17.1875 42.7364 17.4428 42.7214 17.6801 42.641C17.9175 42.5607 18.1277 42.4182 18.2879 42.229C18.4455 42.0429 18.5487 41.8187 18.5866 41.5801C18.743 40.9319 18.6929 40.2524 18.4429 39.6328C18.3649 39.4243 18.3037 39.2112 18.2392 38.9869C18.2177 38.9121 18.1959 38.836 18.1729 38.7585C20.1536 38.0015 22.2611 36.9836 23.0022 34.6156C23.2924 33.7973 23.3166 32.9112 23.0714 32.0788C22.826 31.2455 22.3225 30.5069 21.6303 29.9647C20.6882 29.2057 19.5877 28.6573 18.4059 28.3581ZM15.1384 31.2626C15.1774 31.2516 15.2167 31.2414 15.2561 31.2319C16.5456 31.0337 17.8649 31.2978 18.9711 31.9754C19.4586 32.3069 19.6583 32.6752 19.6926 33.0296C19.728 33.3945 19.5923 33.7899 19.3197 34.17C18.8046 34.888 17.8646 35.4627 17.0155 35.5698C16.3965 34.176 15.7679 32.7258 15.1384 31.2626Z" fill="#3A3B7B"/>
<path d="M26.2647 25.8068C27.6685 25.1729 29.4074 25.0634 30.7681 25.5091C31.1108 25.6067 31.4081 25.8178 31.6092 26.1063C31.809 26.393 31.9012 26.7385 31.8704 27.0839C31.8684 27.3081 31.8121 27.5287 31.7062 27.7277C31.5984 27.9303 31.4423 28.1045 31.2511 28.2357C31.0599 28.3668 30.8392 28.4511 30.6077 28.4812C30.3761 28.5114 30.1406 28.4866 29.9209 28.4089L29.9042 28.403L29.8885 28.3949C29.7761 28.3374 29.6567 28.2941 29.5332 28.2659L29.5254 28.2642C28.5682 28.0156 27.6653 28.4275 27.3355 28.9336C27.1782 29.1749 27.1587 29.4185 27.2897 29.6401C27.43 29.8774 27.7741 30.1437 28.4704 30.3335C28.6619 30.3849 28.8582 30.4345 29.0573 30.4849C29.6079 30.6243 30.1801 30.7691 30.7334 30.9698L30.7355 30.9706C33.2881 31.9202 34.2386 33.8869 33.9132 35.7367C33.5913 37.566 32.0288 39.2308 29.6791 39.6235C28.8241 39.8088 27.9343 39.7727 27.0978 39.5188C26.2592 39.2641 25.5033 38.7994 24.9052 38.1706L24.8896 38.1542C24.7008 37.9173 24.5738 37.639 24.5175 37.3437C24.4657 37.0772 24.493 36.8018 24.596 36.5499C24.6984 36.2995 24.8716 36.0828 25.0951 35.9249C25.3312 35.7459 25.6158 35.6385 25.9137 35.6161C26.2106 35.5938 26.5077 35.6569 26.7684 35.7975C27.0288 35.9205 27.271 36.0774 27.4884 36.264L27.4925 36.2674C27.8771 36.6113 28.3424 36.7009 28.7886 36.6179C29.2413 36.5337 29.667 36.2718 29.9408 35.9243C30.2128 35.579 30.322 35.1688 30.1924 34.7706C30.062 34.3695 29.6699 33.9201 28.8084 33.5444C28.5832 33.4509 28.3497 33.3755 28.1068 33.3021C28.0413 33.2823 27.9747 33.2626 27.9073 33.2426C27.7277 33.1893 27.5429 33.1344 27.3617 33.0739C27.2369 33.0323 27.1131 32.9929 26.9905 32.9538C26.6554 32.8471 26.3287 32.7431 26.0143 32.6036C25.33 32.3758 24.7388 31.9384 24.3287 31.3561C23.9169 30.7715 23.7097 30.0724 23.7379 29.3632C23.7401 27.6349 24.8534 26.4442 26.2647 25.8068Z" fill="#3A3B7B"/>
<path d="M44.0621 25.6227C43.7899 25.4927 43.4889 25.431 43.1863 25.4431C42.8836 25.4553 42.5888 25.5409 42.3285 25.6924C42.0698 25.8428 41.8532 26.0534 41.698 26.3055C41.5557 26.5178 41.4572 26.7552 41.4081 27.0045C41.359 27.2536 41.3602 27.5096 41.4115 27.7581C41.4622 28.0775 41.5184 28.3881 41.5739 28.6944C41.6658 29.2013 41.7552 29.6968 41.8142 30.202L41.8164 30.2148C41.9507 31.0071 42.021 31.8084 42.0273 32.6114L42.0279 32.6228C42.0738 33.49 41.7716 34.3403 41.1861 34.9933L41.1768 35.0049C40.9863 35.2436 40.7316 35.4258 40.4411 35.5311C40.1507 35.6364 39.8361 35.6606 39.5324 35.601C39.2287 35.5414 38.948 35.4004 38.7216 35.1937C38.4952 34.987 38.3319 34.722 38.2504 34.4299C38.0764 33.8142 37.9757 33.1809 37.9501 32.5427L38.2473 27.9164C38.2517 27.856 38.2567 27.794 38.2618 27.7314C38.2731 27.5909 38.2847 27.4478 38.2895 27.3143C38.2965 27.1179 38.2905 26.9159 38.2437 26.7247C38.1958 26.5293 38.1047 26.3434 37.9431 26.1851C37.7831 26.0284 37.5671 25.9128 37.2953 25.8341C36.8038 25.695 36.3882 25.6994 36.0419 25.8431C35.6954 25.9868 35.458 26.2536 35.29 26.5618C35.1233 26.8674 35.0162 27.2292 34.9352 27.5916C34.8751 27.8605 34.8268 28.1428 34.7809 28.4115C34.765 28.5041 34.7495 28.595 34.7338 28.6833L34.7334 28.6859C34.4878 30.1595 34.4147 31.6557 34.5155 33.1455C34.5343 33.9506 34.706 34.7453 35.022 35.489C35.3785 36.4486 36.0242 37.28 36.8739 37.8735C37.7254 38.4682 38.7415 38.7959 39.7877 38.8132C40.8339 38.8305 41.8608 38.5366 42.7324 37.9705C43.6026 37.4052 44.277 36.595 44.6664 35.6471C45.2111 34.4396 45.4669 33.1264 45.4141 31.8076C45.3821 30.8448 45.3285 29.8746 45.2752 28.9093C45.249 28.4358 45.2229 27.9633 45.1995 27.4937C45.1877 27.0228 45.0289 26.5667 44.7443 26.1866C44.5682 25.9463 44.3338 25.7525 44.0621 25.6227Z" fill="#3A3B7B"/>
<path d="M53.696 32.8768C53.6684 32.9111 53.6393 32.9466 53.6089 32.9835C53.3875 31.7347 53.1823 30.4863 52.9768 29.236C52.9031 28.7874 52.829 28.3369 52.7545 27.8877L52.7461 27.8376L52.7189 27.7943C52.6676 27.7128 52.6625 27.6329 52.6625 27.4625V27.4428L52.6594 27.4233C52.6038 27.0714 52.441 26.7439 52.1923 26.4837C51.9443 26.2242 51.6222 26.0436 51.2679 25.9652C50.9142 25.8799 50.5425 25.8987 50.1996 26.0193C49.8576 26.1396 49.5595 26.3558 49.3425 26.6408C49.1621 26.8595 49.0142 27.1021 48.9034 27.3613C48.6519 27.9197 48.3982 28.4795 48.1438 29.0408L48.1394 29.0505C47.5043 30.4518 46.8649 31.8625 46.2441 33.2843L46.2422 33.2889C45.8611 34.2108 45.5465 35.1822 45.233 36.1506C45.1704 36.3439 45.1078 36.5371 45.0447 36.7298C44.9315 37.0354 44.882 37.36 44.899 37.6845C44.8784 37.975 44.9495 38.2648 45.1029 38.5147C45.2593 38.7697 45.4936 38.9703 45.7727 39.0884C46.0685 39.2152 46.3992 39.2421 46.7125 39.1649C47.0251 39.0878 47.3027 38.9114 47.5016 38.6634C47.7556 38.3579 47.9741 38.0247 48.1523 37.6717C48.6782 36.6199 49.1808 35.5553 49.6811 34.4953C49.8747 34.0853 50.0628 33.7181 50.2768 33.3182C50.2915 33.3675 50.3065 33.4156 50.322 33.4638C50.5463 34.4293 50.9249 35.3541 51.4438 36.2043C51.542 36.3844 51.6788 36.5418 51.8448 36.6657C52.0128 36.7911 52.2067 36.8791 52.413 36.9238C52.6193 36.9685 52.8331 36.9687 53.0395 36.9244C53.2456 36.8802 53.4401 36.7921 53.6082 36.6673L53.9409 36.4238L56.5232 34.2971L56.3705 35.2486C56.1609 36.5565 55.9529 37.8535 55.7319 39.1508C55.5873 39.7258 55.5875 40.3264 55.7325 40.9012C55.7953 41.2247 55.9553 41.5225 56.1921 41.7567C56.4309 41.9928 56.7367 42.1532 57.0699 42.2172C57.4031 42.2811 57.7483 42.2457 58.0606 42.1154C58.3684 41.9871 58.6302 41.7725 58.8132 41.499C59.239 40.9825 59.504 40.3572 59.5768 39.6975C59.6864 38.7659 59.8102 37.8216 59.9341 36.8776C60.0768 35.7895 60.2195 34.7017 60.34 33.6348L60.3404 33.6315C60.4564 32.4636 60.5125 31.2909 60.5086 30.1175C60.534 29.7467 60.4396 29.3773 60.2384 29.0616C60.0365 28.7448 59.7375 28.4985 59.3841 28.3576C59.0165 28.1942 58.605 28.1505 58.2101 28.2331C57.8178 28.3151 57.4627 28.5173 57.1963 28.8102C56.72 29.2409 56.2732 29.7018 55.8587 30.1899L55.8559 30.1932C55.4034 30.7445 54.954 31.3066 54.5075 31.8651C54.236 32.2046 53.9653 32.5433 53.696 32.8768Z" fill="#3A3B7B"/>
</g>
<defs>
<clipPath id="clip0_545_313">
<rect width="70" height="44" fill="white" transform="translate(0.5 0.0595703)"/>
</clipPath>
</defs>
</svg>
