<svg width="40" height="40" viewBox="0 0 40 40" fill="none" xmlns="http://www.w3.org/2000/svg">
<path d="M40 19.0326H26.0761C24.6957 19.0326 24 17.3587 24.9783 16.3804L34.8152 6.54348L33.4565 5.18478L23.6087 15.0326C22.6304 16.0109 20.9565 15.3152 20.9565 13.9348V0H19.0326V13.9239C19.0326 15.3043 17.3587 16 16.3804 15.0217L6.53261 5.17391L5.17391 6.53261L15.0109 16.3696C15.9891 17.3478 15.2935 19.0217 13.913 19.0217H0V20.9457H13.9239C15.3043 20.9457 16 22.6196 15.0217 23.5978L5.18478 33.4348L6.54348 34.7935L16.3804 24.9565C17.3587 23.9783 19.0326 24.6739 19.0326 26.0543V40H20.9565V26.0761C20.9565 24.6957 22.6304 24 23.6087 24.9783L33.4565 34.8261L34.8152 33.4674L24.9783 23.6304C24 22.6522 24.6957 20.9783 26.0761 20.9783H40V19.0326Z" fill="black"/>
</svg>
