<svg width="105" height="41" viewBox="0 0 105 41" fill="none" xmlns="http://www.w3.org/2000/svg">
<g clip-path="url(#clip0_545_288)">
<path d="M48.1362 35.2977H50.8706V24.9834H48.1362V35.2977ZM48.1362 23.3749H50.8706V20.922H48.1362V23.3749Z" fill="black"/>
<path d="M52.6323 38.6755H55.3667V34.1316H55.407C55.99 35.0162 56.935 35.5993 58.3826 35.5993C61.0366 35.5993 62.8461 33.4882 62.8461 30.1506C62.8461 26.9336 61.0969 24.7019 58.3625 24.7019C56.9551 24.7019 55.99 25.3654 55.3265 26.2701H55.2662V24.9834H52.6323V38.6755ZM57.7996 33.3273C56.171 33.3273 55.3064 32.1009 55.3064 30.231C55.3064 28.3813 55.99 26.9135 57.699 26.9135C59.3879 26.9135 60.0715 28.2807 60.0715 30.231C60.0715 32.1813 59.1869 33.3273 57.7996 33.3273Z" fill="black"/>
<path d="M68.3006 35.5993C70.8741 35.5993 72.6434 34.3527 72.6434 32.2818C72.6434 29.8691 70.7334 29.3866 69.0043 29.0247C67.5365 28.7231 66.1693 28.6426 66.1693 27.758C66.1693 27.0141 66.873 26.6119 67.9387 26.6119C69.1048 26.6119 69.8085 27.0141 69.9291 28.1199H72.4022C72.2011 26.049 70.6932 24.7019 67.9789 24.7019C65.6265 24.7019 63.7767 25.7675 63.7767 27.9992C63.7767 30.2511 65.5863 30.7538 67.436 31.1157C68.8434 31.3971 70.1503 31.4977 70.1503 32.4829C70.1503 33.2067 69.4667 33.6691 68.2603 33.6691C67.0339 33.6691 66.1894 33.1464 66.0085 31.9601H63.4751C63.636 34.1517 65.3048 35.5993 68.3006 35.5993Z" fill="black"/>
<path d="M83.025 35.2977V24.9834H80.2906V30.9347C80.2906 32.3019 79.5065 33.267 78.2197 33.267C77.0536 33.267 76.5107 32.6035 76.5107 31.3971V24.9834H73.7964V31.8596C73.7964 34.1114 75.0832 35.5792 77.3753 35.5792C78.8229 35.5792 79.6271 35.0363 80.3309 34.0913H80.3912V35.2977H83.025Z" fill="black"/>
<path d="M84.7939 35.2977H87.5284V29.3061C87.5284 27.9389 88.2723 27.0543 89.3781 27.0543C90.3834 27.0543 90.9665 27.6574 90.9665 28.8236V35.2977H93.7009V29.3061C93.7009 27.9389 94.4046 27.0543 95.5506 27.0543C96.5559 27.0543 97.139 27.6574 97.139 28.8236V35.2977H99.8734V28.3612C99.8734 26.1093 98.6469 24.7019 96.4755 24.7019C95.1686 24.7019 94.0829 25.3855 93.3792 26.5114H93.339C92.8363 25.4257 91.7908 24.7019 90.4839 24.7019C89.0564 24.7019 88.0511 25.4257 87.4881 26.3707H87.4278V24.9834H84.7939V35.2977Z" fill="black"/>
<path d="M48.1763 17.6316H50.9107V3.25586H48.1763V17.6316Z" fill="black"/>
<path d="M57.5964 17.9332C60.7933 17.9332 62.9848 15.5607 62.9848 12.4845C62.9848 9.40826 60.7933 7.03577 57.5964 7.03577C54.3996 7.03577 52.208 9.40826 52.208 12.4845C52.208 15.5607 54.3996 17.9332 57.5964 17.9332ZM57.5964 15.8422C55.9075 15.8422 54.9827 14.4951 54.9827 12.4845C54.9827 10.4739 55.9075 9.10668 57.5964 9.10668C59.2652 9.10668 60.2102 10.4739 60.2102 12.4845C60.2102 14.4951 59.2652 15.8422 57.5964 15.8422Z" fill="black"/>
<path d="M68.8 21.1502C70.3281 21.1502 71.6551 20.7883 72.5196 19.984C73.2836 19.2803 73.7461 18.2951 73.7461 16.8475V7.31725H71.1122V8.40297H71.072C70.4487 7.53841 69.5037 7.03577 68.2169 7.03577C65.6032 7.03577 63.7534 9.00615 63.7534 12.0824C63.7534 15.1988 66.0053 17.0083 68.2974 17.0083C69.6043 17.0083 70.3884 16.4856 70.9916 15.802H71.0519V16.9279C71.0519 18.3353 70.308 19.0792 68.7598 19.0792C67.4931 19.0792 66.9101 18.5766 66.6889 17.9332H63.9746C64.2561 19.9438 65.9852 21.1502 68.8 21.1502ZM68.7598 14.8168C67.3524 14.8168 66.4275 13.7914 66.4275 12.0422C66.4275 10.3131 67.3524 9.22731 68.7397 9.22731C70.3884 9.22731 71.1926 10.5141 71.1926 12.0221C71.1926 13.5501 70.4889 14.8168 68.7598 14.8168Z" fill="black"/>
<path d="M80.3923 17.9332C83.5891 17.9332 85.7807 15.5607 85.7807 12.4845C85.7807 9.40826 83.5891 7.03577 80.3923 7.03577C77.1955 7.03577 75.0039 9.40826 75.0039 12.4845C75.0039 15.5607 77.1955 17.9332 80.3923 17.9332ZM80.3923 15.8422C78.7034 15.8422 77.7785 14.4951 77.7785 12.4845C77.7785 10.4739 78.7034 9.10668 80.3923 9.10668C82.0611 9.10668 83.0061 10.4739 83.0061 12.4845C83.0061 14.4951 82.0611 15.8422 80.3923 15.8422Z" fill="black"/>
<path d="M88.1777 13.6909H99.9998V11.3385H88.1777V13.6909Z" fill="black"/>
<path d="M100.867 23.2312C100.867 22.7685 101.242 22.3934 101.705 22.3934H103.38C103.843 22.3934 104.218 22.7685 104.218 23.2312C104.218 23.6938 103.843 24.0689 103.38 24.0689H101.705C101.242 24.0689 100.867 23.6938 100.867 23.2312Z" fill="black"/>
<path fill-rule="evenodd" clip-rule="evenodd" d="M20.5215 0.0595703C31.5672 0.0595703 40.5215 9.01387 40.5215 20.0596C40.5215 31.1053 31.5672 40.0596 20.5215 40.0596C9.47579 40.0596 0.521484 31.1053 0.521484 20.0596C0.521484 9.01387 9.47579 0.0595703 20.5215 0.0595703ZM19.7986 1.55616C17.517 1.87726 15.3444 3.71065 13.6579 6.77697C13.1687 7.6664 12.7273 8.64903 12.3426 9.71001C14.6358 9.13374 17.1549 8.79399 19.7986 8.74144V1.55616ZM10.6523 10.1904C11.1306 8.68915 11.7158 7.30797 12.3911 6.08022C13.2271 4.56016 14.2193 3.24752 15.3372 2.23934C9.25828 4.0048 4.46671 8.79636 2.70126 14.8753C3.70943 13.7574 5.02208 12.7652 6.54214 11.9292C7.76989 11.2539 9.15106 10.6687 10.6523 10.1904ZM10.1719 11.8807C9.59565 14.1739 9.25591 16.693 9.20336 19.3367H2.01807C2.33918 17.055 4.17257 14.8824 7.23889 13.196C8.12832 12.7068 9.11095 12.2654 10.1719 11.8807ZM10.6495 19.3367C10.7092 16.4516 11.1245 13.743 11.8117 11.3498C14.2049 10.6626 16.9136 10.2472 19.7986 10.1875V13.3104C18.7223 16.0658 16.5271 18.2608 13.7716 19.3367H10.6495ZM9.20336 20.7825H2.01807C2.33918 23.0642 4.17257 25.2367 7.23889 26.9232C8.12832 27.4124 9.11095 27.8538 10.1719 28.2385C9.59565 25.9453 9.25591 23.4262 9.20336 20.7825ZM11.8117 28.7694C11.1245 26.3762 10.7092 23.6676 10.6495 20.7825H13.7716C16.5271 21.8584 18.7224 24.0534 19.7986 26.8088V29.9317C16.9136 29.872 14.2049 29.4566 11.8117 28.7694ZM10.6523 29.9288C9.15106 29.4505 7.76989 28.8653 6.54214 28.19C5.02208 27.354 3.70943 26.3618 2.70126 25.2439C4.46671 31.3228 9.25828 36.1144 15.3372 37.8798C14.2193 36.8716 13.2271 35.559 12.3911 34.0389C11.7158 32.8112 11.1306 31.43 10.6523 29.9288ZM19.7986 38.563C17.517 38.2419 15.3444 36.4085 13.6579 33.3422C13.1687 32.4528 12.7273 31.4701 12.3426 30.4092C14.6358 30.9854 17.1549 31.3252 19.7986 31.3777V38.563ZM25.7058 37.8798C26.8237 36.8716 27.8159 35.559 28.652 34.0389C29.3272 32.8112 29.9124 31.43 30.3907 29.9288C31.8919 29.4505 33.2731 28.8653 34.5009 28.19C36.0209 27.354 37.3336 26.3618 38.3417 25.2439C36.5763 31.3228 31.7847 36.1144 25.7058 37.8798ZM28.7004 30.4092C28.3157 31.4701 27.8743 32.4528 27.3851 33.3422C25.6987 36.4085 23.5261 38.2419 21.2444 38.563V31.3777C23.8881 31.3252 26.4072 30.9854 28.7004 30.4092ZM30.8711 28.2385C31.932 27.8538 32.9147 27.4124 33.8041 26.9232C36.8704 25.2367 38.7038 23.0642 39.0249 20.7825H31.8396C31.7871 23.4262 31.4473 25.9453 30.8711 28.2385ZM30.3936 20.7825C30.3339 23.6676 29.9185 26.3762 29.2313 28.7694C26.8381 29.4566 24.1295 29.872 21.2444 29.9317V26.8111C22.3203 24.0547 24.516 21.8587 27.2723 20.7825H30.3936ZM31.8396 19.3367H39.0249C38.7038 17.055 36.8704 14.8824 33.8041 13.196C32.9147 12.7068 31.932 12.2654 30.8711 11.8807C31.4473 14.1739 31.7871 16.693 31.8396 19.3367ZM29.2313 11.3498C29.9185 13.743 30.3339 16.4516 30.3936 19.3367H27.2723C24.516 18.2605 22.3203 16.0645 21.2444 13.3081V10.1875C24.1295 10.2472 26.8381 10.6626 29.2313 11.3498ZM30.3907 10.1904C31.8919 10.6687 33.2731 11.2539 34.5009 11.9292C36.0209 12.7652 37.3336 13.7574 38.3417 14.8753C36.5763 8.79636 31.7847 4.0048 25.7058 2.23934C26.8237 3.24752 27.8159 4.56016 28.652 6.08022C29.3272 7.30797 29.9124 8.68915 30.3907 10.1904ZM21.2444 1.55616C23.5261 1.87726 25.6987 3.71065 27.3851 6.77697C27.8743 7.66641 28.3157 8.64903 28.7004 9.71001C26.4072 9.13374 23.8881 8.79399 21.2444 8.74144V1.55616Z" fill="black"/>
</g>
<defs>
<clipPath id="clip0_545_288">
<rect width="105" height="40" fill="white" transform="translate(0 0.0595703)"/>
</clipPath>
</defs>
</svg>
