<svg width="187" height="42" viewBox="0 0 187 42" fill="none" xmlns="http://www.w3.org/2000/svg">
<g clip-path="url(#clip0_545_301)">
<path fill-rule="evenodd" clip-rule="evenodd" d="M59.5371 3.28818C59.5371 1.89879 60.6757 0.772461 62.0804 0.772461H66.511C67.5107 0.772461 68.4796 1.11516 69.2526 1.74222L70.6004 2.8355L70.6341 2.86591C70.6652 2.85553 70.6963 2.84539 70.7275 2.8355C73.1591 2.06511 76.1093 1.9186 79.1204 1.9186C82.1315 1.9186 85.0817 2.06511 87.5133 2.8355C87.5445 2.84539 87.5756 2.85553 87.6067 2.86591L87.6404 2.8355L88.9882 1.74222C89.7612 1.11516 90.7301 0.772461 91.7298 0.772461H96.1604C97.5651 0.772461 98.7037 1.89879 98.7037 3.28818V4.84336C98.7037 6.04661 98.1913 7.1942 97.2921 8.0046L96.2048 8.98459C95.674 9.46301 95.0369 9.81119 94.3449 10.001L94.0877 10.0716C95.0952 12.4495 95.6518 14.9913 95.6518 17.0475C95.6518 25.3189 90.4779 28.8912 85.9191 32.0388C82.329 34.5176 79.1204 36.7329 79.1204 40.7725C79.1204 36.7329 75.9118 34.5176 72.3217 32.0388C67.7629 28.8912 62.589 25.3189 62.589 17.0475C62.589 14.9913 63.1456 12.4495 64.1531 10.0716L63.8959 10.001C63.2039 9.81119 62.5668 9.46301 62.036 8.98459L60.9487 8.0046C60.0495 7.1942 59.5371 6.04661 59.5371 4.84336V3.28818ZM82.4267 23.8097C82.4267 24.2049 82.2525 24.5838 81.9425 24.8633C81.6325 25.1427 81.212 25.2997 80.7735 25.2997C80.395 25.2997 80.0298 25.1826 79.7376 24.9708C80.235 26.2878 81.5079 27.5357 83.444 25.5289C85.1532 23.6642 83.368 19.7313 81.6288 17.3975C81.0491 16.6196 80.0974 16.2452 79.1204 16.2452C78.1434 16.2452 77.1917 16.6196 76.612 17.3975C74.8728 19.7313 73.0876 23.6642 74.7968 25.5289C76.7329 27.5357 78.0058 26.2878 78.5032 24.9708C78.211 25.1826 77.8458 25.2997 77.4673 25.2997C77.0288 25.2997 76.6083 25.1427 76.2983 24.8633C75.9883 24.5838 75.8141 24.2049 75.8141 23.8097H82.4267ZM72.7897 12.1676H68.1843L71.8138 15.0423C72.6125 15.6748 73.7799 15.4726 74.2741 14.6161C74.8981 13.5347 74.0693 12.1676 72.7897 12.1676ZM85.4511 12.1676H90.0565L86.427 15.0423C85.6283 15.6748 84.4609 15.4726 83.9667 14.6161C83.3427 13.5347 84.1715 12.1676 85.4511 12.1676Z" fill="#72B800"/>
<path d="M104.19 29.1058H108.27V13.7158H104.19V29.1058ZM104.19 11.3158H108.27V7.65576H104.19V11.3158Z" fill="#355030"/>
<path d="M110.899 34.1459H114.979V27.3659H115.039C115.909 28.6859 117.319 29.5559 119.479 29.5559C123.439 29.5559 126.139 26.4059 126.139 21.4259C126.139 16.6259 123.529 13.2959 119.449 13.2959C117.349 13.2959 115.909 14.2859 114.919 15.6359H114.829V13.7159H110.899V34.1459ZM118.609 26.1659C116.179 26.1659 114.889 24.3359 114.889 21.5459C114.889 18.7859 115.909 16.5959 118.459 16.5959C120.979 16.5959 121.999 18.6359 121.999 21.5459C121.999 24.4559 120.679 26.1659 118.609 26.1659Z" fill="#355030"/>
<path d="M134.278 29.5559C138.118 29.5559 140.758 27.6959 140.758 24.6059C140.758 21.0059 137.908 20.2859 135.328 19.7459C133.138 19.2959 131.098 19.1759 131.098 17.8559C131.098 16.7459 132.148 16.1459 133.738 16.1459C135.478 16.1459 136.528 16.7459 136.708 18.3959H140.398C140.098 15.3059 137.848 13.2959 133.798 13.2959C130.288 13.2959 127.528 14.8859 127.528 18.2159C127.528 21.5759 130.228 22.3259 132.988 22.8659C135.088 23.2859 137.038 23.4359 137.038 24.9059C137.038 25.9859 136.018 26.6759 134.218 26.6759C132.388 26.6759 131.128 25.8959 130.858 24.1259H127.078C127.318 27.3959 129.808 29.5559 134.278 29.5559Z" fill="#355030"/>
<path d="M156.249 29.1058V13.7158H152.169V22.5958C152.169 24.6358 150.999 26.0758 149.079 26.0758C147.339 26.0758 146.529 25.0858 146.529 23.2858V13.7158H142.479V23.9758C142.479 27.3358 144.399 29.5258 147.819 29.5258C149.979 29.5258 151.179 28.7158 152.229 27.3058H152.319V29.1058H156.249Z" fill="#355030"/>
<path d="M158.888 29.1059H162.968V20.1659C162.968 18.1259 164.078 16.8059 165.728 16.8059C167.228 16.8059 168.098 17.7059 168.098 19.4459V29.1059H172.178V20.1659C172.178 18.1259 173.228 16.8059 174.938 16.8059C176.438 16.8059 177.308 17.7059 177.308 19.4459V29.1059H181.388V18.7559C181.388 15.3959 179.558 13.2959 176.318 13.2959C174.368 13.2959 172.748 14.3159 171.698 15.9959H171.638C170.888 14.3759 169.328 13.2959 167.378 13.2959C165.248 13.2959 163.748 14.3759 162.908 15.7859H162.818V13.7159H158.888V29.1059Z" fill="#355030"/>
<path d="M1.18408 29.1058H5.26408V7.65576H1.18408V29.1058Z" fill="#355030"/>
<path d="M15.2402 29.5559C20.0102 29.5559 23.2802 26.0159 23.2802 21.4259C23.2802 16.8359 20.0102 13.2959 15.2402 13.2959C10.4702 13.2959 7.2002 16.8359 7.2002 21.4259C7.2002 26.0159 10.4702 29.5559 15.2402 29.5559ZM15.2402 26.4359C12.7202 26.4359 11.3402 24.4259 11.3402 21.4259C11.3402 18.4259 12.7202 16.3859 15.2402 16.3859C17.7302 16.3859 19.1402 18.4259 19.1402 21.4259C19.1402 24.4259 17.7302 26.4359 15.2402 26.4359Z" fill="#355030"/>
<path d="M31.9568 34.3559C34.2368 34.3559 36.2168 33.8159 37.5068 32.6159C38.6468 31.5659 39.3368 30.0959 39.3368 27.9359V13.7159H35.4068V15.3359H35.3468C34.4168 14.0459 33.0068 13.2959 31.0868 13.2959C27.1868 13.2959 24.4268 16.2359 24.4268 20.8259C24.4268 25.4759 27.7868 28.1759 31.2068 28.1759C33.1568 28.1759 34.3268 27.3959 35.2268 26.3759H35.3168V28.0559C35.3168 30.1559 34.2068 31.2659 31.8968 31.2659C30.0068 31.2659 29.1368 30.5159 28.8068 29.5559H24.7568C25.1768 32.5559 27.7568 34.3559 31.9568 34.3559ZM31.8968 24.9059C29.7968 24.9059 28.4168 23.3759 28.4168 20.7659C28.4168 18.1859 29.7968 16.5659 31.8668 16.5659C34.3268 16.5659 35.5268 18.4859 35.5268 20.7359C35.5268 23.0159 34.4768 24.9059 31.8968 24.9059Z" fill="#355030"/>
<path d="M49.2539 29.5559C54.0239 29.5559 57.2939 26.0159 57.2939 21.4259C57.2939 16.8359 54.0239 13.2959 49.2539 13.2959C44.4839 13.2959 41.2139 16.8359 41.2139 21.4259C41.2139 26.0159 44.4839 29.5559 49.2539 29.5559ZM49.2539 26.4359C46.7339 26.4359 45.3539 24.4259 45.3539 21.4259C45.3539 18.4259 46.7339 16.3859 49.2539 16.3859C51.7439 16.3859 53.1539 18.4259 53.1539 21.4259C53.1539 24.4259 51.7439 26.4359 49.2539 26.4359Z" fill="#355030"/>
<path d="M181.204 10.356C181.204 9.6656 181.763 9.10596 182.454 9.10596H184.954C185.644 9.10596 186.204 9.6656 186.204 10.356C186.204 11.0463 185.644 11.606 184.954 11.606H182.454C181.763 11.606 181.204 11.0463 181.204 10.356Z" fill="#355030"/>
</g>
<defs>
<clipPath id="clip0_545_301">
<rect width="186" height="41" fill="white" transform="translate(0.5 0.55957)"/>
</clipPath>
</defs>
</svg>
