<svg width="97" height="51" viewBox="0 0 97 51" fill="none" xmlns="http://www.w3.org/2000/svg">
<path d="M24.5786 24.636L24.7772 24.594H41.2954L47.5023 30.8009H30.7437L24.5786 24.636Z" fill="black"/>
<path d="M19.2611 24.594L2.50244 24.5941L8.70932 30.801H19.2609L19.2611 24.594Z" fill="black"/>
<path d="M53.27 6.76416H55.8441V14.7627H60.2652V16.9296H53.27V6.76416Z" fill="black"/>
<path d="M64.9387 17.1477C64.0758 17.1477 63.3199 16.9926 62.6698 16.6823C62.0203 16.3624 61.5162 15.9262 61.1574 15.3735C60.8083 14.8112 60.6338 14.1665 60.6338 13.4393C60.6338 12.7122 60.8083 12.0723 61.1574 11.5197C61.5162 10.9574 62.0203 10.5211 62.6698 10.2109C63.3199 9.89089 64.0758 9.73096 64.9387 9.73096C65.8016 9.73096 66.5581 9.89089 67.2076 10.2109C67.857 10.5211 68.3563 10.9574 68.7053 11.5197C69.0641 12.0723 69.2435 12.7122 69.2435 13.4393C69.2435 14.1665 69.0641 14.8112 68.7053 15.3735C68.3563 15.9262 67.857 16.3624 67.2076 16.6823C66.5581 16.9926 65.8016 17.1477 64.9387 17.1477ZM64.9387 15.1554C65.4525 15.1554 65.86 15.0051 66.1604 14.7046C66.4705 14.3943 66.6256 13.9726 66.6256 13.4393C66.6256 12.9061 66.4705 12.4892 66.1604 12.1886C65.86 11.8784 65.4525 11.7233 64.9387 11.7233C64.4248 11.7233 64.0132 11.8784 63.7024 12.1886C63.402 12.4892 63.2518 12.9061 63.2518 13.4393C63.2518 13.9726 63.402 14.3943 63.7024 14.7046C64.0132 15.0051 64.4248 15.1554 64.9387 15.1554Z" fill="black"/>
<path d="M74.0513 20.2744C73.5861 20.2744 73.116 20.2308 72.6404 20.1435C72.1752 20.0563 71.7733 19.9399 71.434 19.7945V18.0203C72.1996 18.3499 73.0722 18.5148 74.0513 18.5148C74.7591 18.5148 75.2681 18.3693 75.5782 18.0784C75.8981 17.7876 76.058 17.3611 76.058 16.7987V16.3769C75.7771 16.6193 75.4281 16.8084 75.0115 16.9441C74.6041 17.0799 74.1674 17.1477 73.7022 17.1477C72.9658 17.1477 72.3157 16.9926 71.7539 16.6823C71.1913 16.3722 70.7505 15.9358 70.4299 15.3735C70.1198 14.8112 69.9648 14.1665 69.9648 13.4393C69.9648 12.7025 70.1198 12.0529 70.4299 11.4906C70.7408 10.9283 71.1767 10.4969 71.7393 10.1963C72.3011 9.88609 72.9464 9.73096 73.673 9.73096C74.6722 9.73096 75.4962 10.0364 76.1456 10.6471V9.94909H78.6176V16.4497C78.6176 17.6616 78.2449 18.602 77.4981 19.271C76.761 19.9399 75.6123 20.2744 74.0513 20.2744ZM74.3419 15.1699C74.7397 15.1699 75.0936 15.0681 75.4037 14.8645C75.7138 14.6609 75.9322 14.3895 76.058 14.0501V12.8286C75.9224 12.4892 75.6992 12.2226 75.3891 12.0287C75.079 11.8251 74.7299 11.7233 74.3419 11.7233C73.819 11.7233 73.397 11.8784 73.0771 12.1886C72.7572 12.4892 72.5973 12.9013 72.5973 13.4248C72.5973 13.958 72.7572 14.3846 73.0771 14.7046C73.397 15.0148 73.819 15.1699 74.3419 15.1699Z" fill="black"/>
<path d="M83.5719 17.1477C82.709 17.1477 81.9525 16.9926 81.303 16.6823C80.6536 16.3624 80.1495 15.9262 79.7907 15.3735C79.4416 14.8112 79.2671 14.1665 79.2671 13.4393C79.2671 12.7122 79.4416 12.0723 79.7907 11.5197C80.1495 10.9574 80.6536 10.5211 81.303 10.2109C81.9525 9.89089 82.709 9.73096 83.5719 9.73096C84.4348 9.73096 85.1907 9.89089 85.8408 10.2109C86.4903 10.5211 86.9895 10.9574 87.3386 11.5197C87.6974 12.0723 87.8768 12.7122 87.8768 13.4393C87.8768 14.1665 87.6974 14.8112 87.3386 15.3735C86.9895 15.9262 86.4903 16.3624 85.8408 16.6823C85.1907 16.9926 84.4348 17.1477 83.5719 17.1477ZM83.5719 15.1554C84.0858 15.1554 84.4926 15.0051 84.7936 14.7046C85.1038 14.3943 85.2588 13.9726 85.2588 13.4393C85.2588 12.9061 85.1038 12.4892 84.7936 12.1886C84.4926 11.8784 84.0858 11.7233 83.5719 11.7233C83.0581 11.7233 82.6457 11.8784 82.3356 12.1886C82.0352 12.4892 81.885 12.9061 81.885 13.4393C81.885 13.9726 82.0352 14.3943 82.3356 14.7046C82.6457 15.0051 83.0581 15.1554 83.5719 15.1554Z" fill="black"/>
<path d="M53.27 20.6711H55.8441V30.8365H53.27V20.6711Z" fill="black"/>
<path d="M57.1475 23.856H59.6195V24.554C60.269 23.9433 61.0937 23.6379 62.0922 23.6379C62.8188 23.6379 63.4641 23.793 64.0259 24.1033C64.5884 24.4038 65.0244 24.8352 65.3352 25.3975C65.6454 25.9501 65.8004 26.5949 65.8004 27.3317C65.8004 28.0588 65.6454 28.7084 65.3352 29.2804C65.0244 29.8427 64.5884 30.2791 64.0259 30.5892C63.4738 30.8995 62.8285 31.0546 62.0922 31.0546C61.6263 31.0546 61.1806 30.9819 60.7543 30.8365C60.3371 30.7008 59.9881 30.5117 59.7072 30.2693V34.0214H57.1475V23.856ZM61.4233 29.0623C61.9468 29.0623 62.3682 28.9072 62.6881 28.5969C63.0079 28.2867 63.1679 27.8649 63.1679 27.3317C63.1679 26.7985 63.0079 26.3816 62.6881 26.081C62.3682 25.7708 61.9468 25.6157 61.4233 25.6157C61.0353 25.6157 60.6862 25.7175 60.3761 25.9211C60.0659 26.1149 59.8427 26.3816 59.7072 26.7209V27.957C59.8427 28.2964 60.0659 28.5678 60.3761 28.7714C60.6862 28.9654 61.0353 29.0623 61.4233 29.0623Z" fill="black"/>
<path d="M69.6164 31.0546C69.0538 31.0546 68.467 30.9964 67.8565 30.8801C67.246 30.7735 66.7606 30.6184 66.4025 30.4148V28.5388C66.7995 28.7714 67.2745 28.9654 67.8273 29.1205C68.3898 29.2659 68.9036 29.3386 69.3688 29.3386C69.7082 29.3386 69.9557 29.3143 70.1108 29.2659C70.2658 29.2174 70.343 29.1205 70.343 28.975C70.343 28.8587 70.2902 28.7666 70.1831 28.6988C70.0864 28.6212 69.9022 28.5436 69.631 28.466C69.3688 28.3788 69.0636 28.2867 68.7145 28.1897C68.1228 28.0152 67.6576 27.8358 67.3183 27.6516C66.9789 27.4674 66.7272 27.2348 66.5624 26.9536C66.3976 26.6725 66.3149 26.3185 66.3149 25.8919C66.3149 25.1358 66.6104 24.5734 67.2021 24.2051C67.8029 23.8269 68.6227 23.6379 69.6595 23.6379C70.1636 23.6379 70.6921 23.6912 71.2449 23.7978C71.8074 23.9045 72.2288 24.0451 72.5104 24.2196V26.0665C72.219 25.8726 71.8317 25.7126 71.3471 25.5866C70.8715 25.4606 70.4257 25.3975 70.0085 25.3975C69.679 25.3975 69.4224 25.4314 69.2381 25.4993C69.0538 25.5575 68.9621 25.6642 68.9621 25.8193C68.9621 25.9647 69.0538 26.0762 69.2381 26.1537C69.4224 26.2313 69.752 26.3283 70.2269 26.4446C70.537 26.5221 70.6684 26.5561 70.6197 26.5464C71.24 26.7112 71.7198 26.8954 72.0591 27.099C72.3984 27.3027 72.6362 27.545 72.7718 27.8262C72.9172 28.0976 72.9902 28.4466 72.9902 28.8732C72.9902 29.5422 72.6995 30.0755 72.1175 30.4729C71.5452 30.8607 70.7115 31.0546 69.6164 31.0546Z" fill="black"/>
<path d="M76.8115 31.0546C75.8519 31.0546 75.1295 30.788 74.6448 30.2548C74.1699 29.7215 73.9321 29.0187 73.9321 28.1461V23.856H76.4917V27.8552C76.4917 28.6599 76.8553 29.0623 77.582 29.0623C77.9122 29.0623 78.2126 28.9847 78.4838 28.8296C78.7557 28.6745 78.9782 28.4466 79.1527 28.1461V23.856H81.7123V30.8365H79.2403V30.0802C78.9399 30.4002 78.5763 30.6426 78.1493 30.8074C77.7231 30.9722 77.2767 31.0546 76.8115 31.0546Z" fill="black"/>
<path d="M83.0234 23.856H85.3938V24.6122C85.6844 24.302 86.0189 24.0645 86.3972 23.8996C86.7754 23.7251 87.178 23.6379 87.6043 23.6379C88.1278 23.6379 88.5451 23.7154 88.8552 23.8705C89.175 24.0257 89.4316 24.2583 89.6256 24.5686C89.9163 24.2777 90.2702 24.0499 90.6874 23.8851C91.1039 23.7203 91.526 23.6379 91.9522 23.6379C92.8736 23.6379 93.5279 23.8754 93.9159 24.3504C94.3039 24.8158 94.4979 25.4896 94.4979 26.3719V30.8365H92.0544V26.7355C92.0544 26.3477 91.9814 26.0665 91.8361 25.8919C91.6908 25.7175 91.4481 25.6302 91.1088 25.6302C90.6728 25.6302 90.3189 25.7854 90.0477 26.0955C90.0574 26.2604 90.0623 26.5125 90.0623 26.8518V30.8365H87.6189V26.6337C87.6189 26.2749 87.5556 26.018 87.4297 25.8629C87.3039 25.7078 87.0807 25.6302 86.7608 25.6302C86.2664 25.6302 85.8395 25.9065 85.4814 26.4591V30.8365H83.0234V23.856Z" fill="black"/>
<path d="M24.7774 24.5941L24.5787 24.6362L30.7435 30.801V47.5596H25.4676L19.2607 41.3527H24.5366V24.594H19.2607V19.3183H24.5366V2.55957L30.7435 8.76646V19.3182L24.5366 19.3183V24.594L24.7774 24.5941Z" fill="#555555"/>
<path d="M41.2954 24.594L47.5023 30.8009V25.525L41.2954 19.3181V24.594Z" fill="#555555"/>
<path d="M53.6338 35.6082H57.4003C58.4666 35.6082 59.2954 35.8603 59.8872 36.3645C60.4879 36.8686 60.789 37.6151 60.789 38.604C60.789 39.6026 60.4928 40.3492 59.9018 40.8437C59.31 41.3381 58.4763 41.5853 57.4003 41.5853H54.7681V45.7736H53.6338V35.6082ZM57.3131 40.6255C58.0403 40.6255 58.6126 40.4801 59.0291 40.1892C59.4463 39.8887 59.6542 39.3603 59.6542 38.604C59.6542 37.8381 59.4463 37.3097 59.0291 37.0189C58.6126 36.7183 58.0403 36.5681 57.3131 36.5681H54.7681V40.6255H57.3131Z" fill="#555555"/>
<path d="M62.2402 35.0264H63.3597V45.7735H62.2402V35.0264Z" fill="#555555"/>
<path d="M68.2148 45.9917C67.2838 45.9917 66.5662 45.7396 66.062 45.2354C65.5676 44.7313 65.3208 44.0575 65.3208 43.214V38.793H66.4403V43.2722C66.4403 44.4938 67.0751 45.1046 68.3455 45.1046C68.8789 45.1046 69.344 44.9882 69.7418 44.7556C70.1486 44.5228 70.5122 44.1544 70.8321 43.6503V38.793H71.9523V45.7735H70.8613V44.7264C70.2313 45.5699 69.3489 45.9917 68.2148 45.9917Z" fill="#555555"/>
<path d="M76.4142 45.9917C75.9581 45.9917 75.4686 45.9239 74.945 45.7882C74.4214 45.6621 74.0146 45.5022 73.7233 45.3082V44.3629C74.0918 44.5859 74.5139 44.7653 74.9888 44.901C75.4734 45.0368 75.9386 45.1045 76.385 45.1045C76.9858 45.1045 77.4176 45.0221 77.6791 44.8573C77.9509 44.6828 78.0865 44.426 78.0865 44.0867C78.0865 43.8249 78.0281 43.6212 77.912 43.4758C77.7952 43.3206 77.6019 43.1849 77.33 43.0686C77.0588 42.9522 76.6368 42.8165 76.0652 42.6614C75.5027 42.5063 75.0521 42.3463 74.7127 42.1815C74.3832 42.0069 74.1307 41.7889 73.9562 41.5271C73.7817 41.2654 73.6948 40.9309 73.6948 40.5237C73.6948 39.8935 73.9465 39.4136 74.4506 39.084C74.9645 38.7446 75.6431 38.575 76.4866 38.575C76.942 38.575 77.3689 38.6185 77.7667 38.7057C78.1735 38.7833 78.5128 38.8949 78.7847 39.0404V39.9855C78.503 39.8304 78.1637 39.7093 77.7667 39.622C77.3689 39.5251 76.9566 39.4766 76.5304 39.4766C75.9678 39.4766 75.5416 39.559 75.2502 39.7238C74.9596 39.8887 74.8143 40.1553 74.8143 40.5237C74.8143 40.7758 74.8629 40.9697 74.9596 41.1054C75.0667 41.2411 75.2551 41.3672 75.527 41.4835C75.8079 41.5902 76.2543 41.7259 76.8648 41.8907C77.7375 42.1331 78.3431 42.419 78.6824 42.7487C79.0315 43.0686 79.206 43.5147 79.206 44.0867C79.206 44.678 78.9738 45.1434 78.5079 45.4827C78.0525 45.8221 77.3543 45.9917 76.4142 45.9917Z" fill="#555555"/>
</svg>
