<svg width="101" height="52" viewBox="0 0 101 52" fill="none" xmlns="http://www.w3.org/2000/svg">
<path d="M3.08496 30.0762H5.91788V43.9669H3.08496V30.0762Z" fill="#394149"/>
<path d="M7.56126 39.2076C7.55939 38.2099 7.85354 37.234 8.40649 36.4035C8.95944 35.573 9.74633 34.9252 10.6676 34.5421C11.5888 34.159 12.603 34.0578 13.5818 34.2513C14.5606 34.4448 15.46 34.9243 16.1661 35.6292C16.8723 36.334 17.3535 37.2325 17.5488 38.2109C17.7442 39.1893 17.6449 40.2037 17.2635 41.1257C16.8821 42.0476 16.2358 42.8357 15.4063 43.3902C14.5769 43.9448 13.6016 44.2407 12.6039 44.2407C11.9403 44.2483 11.282 44.1234 10.6674 43.8732C10.0528 43.6231 9.49432 43.2528 9.02468 42.784C8.55504 42.3153 8.18369 41.7575 7.9324 41.1433C7.68111 40.5292 7.55493 39.8711 7.56126 39.2076ZM14.7946 39.2076C14.7835 38.7769 14.6456 38.359 14.3982 38.0063C14.1508 37.6535 13.8049 37.3816 13.4037 37.2244C13.0025 37.0672 12.5639 37.0319 12.1428 37.1227C11.7216 37.2135 11.3366 37.4265 11.0358 37.735C10.7351 38.0435 10.532 38.4339 10.4519 38.8573C10.3719 39.2806 10.4185 39.7182 10.5858 40.1152C10.7532 40.5122 11.0339 40.8511 11.3928 41.0894C11.7518 41.3277 12.173 41.4549 12.6039 41.455C12.8986 41.4633 13.1919 41.4104 13.4652 41.2996C13.7385 41.1888 13.9859 41.0226 14.1918 40.8114C14.3976 40.6002 14.5575 40.3487 14.6612 40.0727C14.765 39.7966 14.8104 39.5021 14.7946 39.2076Z" fill="#394149"/>
<path d="M29.0345 34.4481V43.4945C29.0345 46.6957 26.5321 48.0461 24.0014 48.0461C23.1115 48.1123 22.2205 47.9323 21.426 47.5259C20.6315 47.1195 19.9642 46.5023 19.4971 45.742L21.9334 44.335C22.1267 44.7246 22.4326 45.0473 22.8114 45.2611C23.1902 45.4749 23.6245 45.5701 24.0581 45.5342C24.3433 45.5818 24.6357 45.5632 24.9127 45.4798C25.1897 45.3965 25.4438 45.2507 25.6555 45.0536C25.8671 44.8565 26.0307 44.6134 26.1336 44.3431C26.2365 44.0728 26.2759 43.7825 26.2488 43.4945V42.6163C25.9158 43.0261 25.4908 43.3516 25.0085 43.5665C24.5262 43.7814 24 43.8797 23.4726 43.8534C22.1903 43.8534 20.9606 43.344 20.0538 42.4373C19.1471 41.5306 18.6377 40.3008 18.6377 39.0185C18.6377 37.7362 19.1471 36.5065 20.0538 35.5998C20.9606 34.6931 22.1903 34.1837 23.4726 34.1837C23.9997 34.1596 24.5251 34.2589 25.0071 34.4736C25.4891 34.6884 25.9143 35.0127 26.2488 35.4207V34.4764L29.0345 34.4481ZM26.2488 39.0185C26.2677 38.5593 26.1487 38.1049 25.9073 37.7137C25.6658 37.3226 25.3129 37.0126 24.8939 36.8237C24.4749 36.6347 24.0089 36.5754 23.5559 36.6534C23.1029 36.7313 22.6836 36.943 22.3519 37.2611C22.0201 37.5793 21.7911 37.9894 21.6943 38.4387C21.5974 38.888 21.6372 39.3561 21.8085 39.7826C21.9798 40.2092 22.2747 40.5747 22.6554 40.8323C23.0361 41.09 23.4851 41.2278 23.9447 41.2282C24.2448 41.2494 24.5459 41.2076 24.8287 41.1053C25.1116 41.003 25.3699 40.8427 25.587 40.6345C25.804 40.4263 25.9751 40.1749 26.0891 39.8966C26.2031 39.6183 26.2575 39.3192 26.2488 39.0185Z" fill="#394149"/>
<path d="M30.6682 39.2076C30.6663 38.2099 30.9605 37.234 31.5134 36.4035C32.0664 35.573 32.8533 34.9252 33.7745 34.5421C34.6957 34.159 35.7099 34.0578 36.6887 34.2513C37.6675 34.4448 38.5669 34.9243 39.2731 35.6292C39.9792 36.334 40.4604 37.2325 40.6558 38.2109C40.8511 39.1893 40.7518 40.2037 40.3704 41.1257C39.989 42.0476 39.3427 42.8357 38.5133 43.3902C37.6838 43.9448 36.7085 44.2407 35.7108 44.2407C35.0473 44.2483 34.3889 44.1234 33.7743 43.8732C33.1597 43.6231 32.6012 43.2528 32.1316 42.784C31.662 42.3153 31.2906 41.7575 31.0393 41.1433C30.788 40.5292 30.6618 39.8711 30.6682 39.2076ZM37.9016 39.2076C37.8904 38.7769 37.7525 38.359 37.5051 38.0063C37.2577 37.6535 36.9118 37.3816 36.5106 37.2244C36.1095 37.0672 35.6709 37.0319 35.2497 37.1227C34.8285 37.2135 34.4435 37.4265 34.1427 37.735C33.842 38.0435 33.6389 38.4339 33.5588 38.8573C33.4788 39.2806 33.5254 39.7182 33.6927 40.1152C33.8601 40.5122 34.1408 40.8511 34.4997 41.0894C34.8587 41.3277 35.2799 41.4549 35.7108 41.455C36.004 41.4606 36.2952 41.4058 36.5663 41.2938C36.8373 41.1818 37.0824 41.0152 37.2862 40.8043C37.49 40.5935 37.6481 40.3428 37.7508 40.0681C37.8534 39.7934 37.8983 39.5004 37.8827 39.2076H37.9016Z" fill="#394149"/>
<path d="M42.0659 31.8986C42.0659 31.5587 42.1667 31.2264 42.3555 30.9438C42.5444 30.6612 42.8128 30.4409 43.1268 30.3108C43.4409 30.1807 43.7864 30.1467 44.1198 30.213C44.4532 30.2793 44.7594 30.443 44.9998 30.6833C45.2402 30.9237 45.4038 31.2299 45.4701 31.5633C45.5365 31.8967 45.5024 32.2423 45.3724 32.5563C45.2423 32.8703 45.022 33.1388 44.7394 33.3276C44.4567 33.5164 44.1245 33.6172 43.7845 33.6172C43.3295 33.6148 42.8938 33.4329 42.572 33.1111C42.2502 32.7894 42.0684 32.3537 42.0659 31.8986ZM42.3586 34.4482H45.1915V43.9668H42.3586V34.4482Z" fill="#394149"/>
<path d="M57.5429 39.2075C57.5772 39.8367 57.4868 40.4665 57.2768 41.0606C57.0667 41.6547 56.7413 42.2014 56.3191 42.6692C55.8969 43.137 55.3864 43.5167 54.8169 43.7864C54.2474 44.0561 53.6302 44.2105 53.0008 44.2407C52.4724 44.266 51.9448 44.1752 51.4554 43.9745C50.9659 43.7738 50.5264 43.4682 50.1679 43.0792V47.8007H47.335V34.4482H50.1679V35.3453C50.5264 34.9563 50.9659 34.6507 51.4554 34.45C51.9448 34.2493 52.4724 34.1585 53.0008 34.1838C53.6294 34.214 54.2458 34.3681 54.8146 34.6372C55.3835 34.9064 55.8936 35.2852 56.3156 35.752C56.7377 36.2188 57.0633 36.7643 57.2739 37.3573C57.4846 37.9503 57.576 38.5791 57.5429 39.2075ZM54.71 39.2075C54.6988 38.7643 54.5578 38.3341 54.3045 37.9702C54.0512 37.6064 53.6968 37.3247 53.2851 37.1603C52.8734 36.9958 52.4224 36.9557 51.9882 37.045C51.5539 37.1342 51.1553 37.3489 50.8418 37.6624C50.5283 37.9759 50.3137 38.3744 50.2244 38.8087C50.1352 39.243 50.1753 39.6939 50.3397 40.1056C50.5042 40.5173 50.7858 40.8718 51.1497 41.125C51.5136 41.3783 51.9438 41.5193 52.387 41.5305C52.6963 41.5502 53.0062 41.5034 53.296 41.3934C53.5857 41.2833 53.8485 41.1125 54.0668 40.8925C54.285 40.6724 54.4537 40.4082 54.5614 40.1176C54.669 39.827 54.7133 39.5167 54.6911 39.2075H54.71Z" fill="#394149"/>
<path d="M66.363 41.1149C66.363 43.3057 64.4744 44.2405 62.3969 44.2405C61.567 44.314 60.7341 44.1374 60.0054 43.7335C59.2768 43.3296 58.6856 42.7169 58.3081 41.9742L60.7822 40.5672C60.8826 40.9107 61.0976 41.2095 61.3913 41.4139C61.6851 41.6183 62.0399 41.7161 62.3969 41.6909C63.0863 41.6909 63.4262 41.4737 63.4262 41.096C63.4262 40.0478 58.7047 40.605 58.7047 37.3188C58.7047 35.2413 60.4611 34.1931 62.4819 34.1931C63.2276 34.1705 63.9658 34.3476 64.62 34.7063C65.2742 35.0649 65.8205 35.592 66.2025 36.2328L63.719 37.536C63.6093 37.2866 63.4295 37.0744 63.2015 36.9252C62.9735 36.776 62.7072 36.6962 62.4347 36.6955C61.9437 36.6955 61.6415 36.8844 61.6415 37.2338C61.6793 38.3197 66.363 37.5926 66.363 41.1149Z" fill="#394149"/>
<path d="M76.7879 34.4482V43.9668H73.9549V43.0792C73.6254 43.4736 73.2072 43.7844 72.7345 43.9863C72.2619 44.1882 71.7481 44.2753 71.2353 44.2407C69.3467 44.2407 67.6753 42.8714 67.6753 40.2935V34.4482H70.5082V39.878C70.4833 40.1094 70.5103 40.3434 70.5871 40.5631C70.6639 40.7828 70.7886 40.9826 70.9523 41.1481C71.1159 41.3136 71.3144 41.4405 71.5332 41.5197C71.752 41.599 71.9858 41.6284 72.2174 41.6061C73.2562 41.6061 73.9833 41.0017 73.9833 39.6514V34.4482H76.7879Z" fill="#394149"/>
<path d="M93.1625 38.131V43.9668H90.3295V38.3766C90.3295 37.4323 89.8668 36.809 88.9603 36.809C88.0538 36.809 87.4683 37.4795 87.4683 38.6032V43.9668H84.6354V38.3766C84.6354 37.4323 84.1821 36.809 83.2661 36.809C82.3502 36.809 81.7836 37.4795 81.7836 38.6032V43.9668H78.9507V34.4483H81.7836V35.3265C82.0797 34.9386 82.468 34.6309 82.9133 34.4314C83.3586 34.2318 83.8467 34.1467 84.3332 34.1839C84.8218 34.1601 85.3083 34.2634 85.7451 34.4834C86.182 34.7035 86.5544 35.033 86.8262 35.4398C87.1422 35.0145 87.5609 34.6762 88.0431 34.4566C88.5253 34.237 89.0553 34.1431 89.5835 34.1839C91.7366 34.1839 93.1625 35.7514 93.1625 38.131Z" fill="#394149"/>
<path d="M95.5797 34.3916C96.7479 34.3916 97.6949 33.4445 97.6949 32.2763C97.6949 31.1081 96.7479 30.1611 95.5797 30.1611C94.4115 30.1611 93.4644 31.1081 93.4644 32.2763C93.4644 33.4445 94.4115 34.3916 95.5797 34.3916Z" fill="#394149"/>
<path d="M35.1441 22.8711C40.6149 22.8711 45.0498 18.4361 45.0498 12.9653C45.0498 7.49453 40.6149 3.05957 35.1441 3.05957C29.6733 3.05957 25.2383 7.49453 25.2383 12.9653C25.2383 18.4361 29.6733 22.8711 35.1441 22.8711Z" fill="#394149"/>
<path d="M57.2881 22.8711C62.7589 22.8711 67.1938 18.4361 67.1938 12.9653C67.1938 7.49453 62.7589 3.05957 57.2881 3.05957C51.8173 3.05957 47.3823 7.49453 47.3823 12.9653C47.3823 18.4361 51.8173 22.8711 57.2881 22.8711Z" fill="#394149"/>
<path d="M22.906 3.05957H3.104V22.8616H22.906V3.05957Z" fill="#394149"/>
</svg>
